<svg id="Layer_1" data-name="Layer 1" xmlns="http://www.w3.org/2000/svg" viewBox="0 0 402.636 108.373" width="217.25" height="58.47"><defs><style>.logo-type-center-footer-fill{fill:#003a5d}</style></defs><path d="M19.167 10.06a31.733 31.733 0 0 1 31.025 1.447 8.467 8.467 0 1 0 4.23-5.278A38.5 38.5 0 0 0 0 19.31l47.616 47.615a31.928 31.928 0 0 1-31.025-1.447 8.344 8.344 0 1 0-8.065 6.251 8.357 8.357 0 0 0 3.836-.973A38.54 38.54 0 0 0 66.79 57.682zm36.853 1.332a3.163 3.163 0 1 1 0 4.473 3.142 3.142 0 0 1 0-4.473zM10.763 65.593a3.163 3.163 0 0 1-4.473 0 3.163 3.163 0 1 1 4.473 0zm45.125-4.604a31.812 31.812 0 0 1-2.505 2.23L8.67 18.508a30.941 30.941 0 0 1 2.224-2.51 32.015 32.015 0 0 1 2.496-2.242l44.723 44.723a31.111 31.111 0 0 1-2.225 2.51z" fill="#ad976e"></path><path class="logo-type-center-footer-fill" d="M115.88 32.55a78.436 78.436 0 0 0-4.15-.095c-1.617 0-2.884 0-3.835.095v-.158c.918-.318 1.172-.73 1.172-1.363a5.65 5.65 0 0 0-.475-1.965c-.316-.76-.634-1.585-1.014-2.471h-8.936c-.254.665-.54 1.298-.792 1.932a7.53 7.53 0 0 0-.666 2.409 1.356 1.356 0 0 0 1.204 1.458v.158c-1.204-.095-2.63-.095-3.675-.095a57.65 57.65 0 0 0-3.359.095v-.158c1.077-.445 1.552-.92 2.82-3.771 5.577-12.328 6.845-15.179 8.303-18.697h2.756c.919 2.536 3.232 7.986 8.144 19.298.95 2.187 1.331 2.758 2.503 3.17zm-9.316-8.493c-.983-2.377-2.092-5.133-3.423-8.334-1.204 2.916-2.344 5.704-3.453 8.334zM126.588 27.987c0 1.299.507 1.838 2.471 1.838 3.644 0 4.786-.761 6.338-3.36l.158.095a48.629 48.629 0 0 0-1.172 6.021 287.686 287.686 0 0 0-8.777-.126c-1.649 0-4.215.031-5.641.095v-.158c1.775-.603 2.06-1.046 2.06-6.877v-8.27c0-5.831-.285-6.275-2.06-6.846v-.158c1.426.064 2.694.095 4.34.095 1.65 0 2.948-.031 4.501-.095v.158c-1.964.57-2.218.856-2.218 6.085zM149.245 32.55a103.165 103.165 0 0 0-4.5-.095c-1.648 0-2.915.031-4.342.095v-.158c1.776-.603 2.06-1.046 2.06-6.877v-8.27c0-5.831-.284-6.275-2.06-6.846v-.158c1.427.064 3.232.095 4.88.095 4.469 0 7.162-.064 9.95-.222a47.528 47.528 0 0 0 .127 5.672l-.158.033c-.918-2.346-2.028-2.885-5.957-2.885a15.047 15.047 0 0 0-2.218.096v7.13l2.979-.096c2.947-.126 3.548-.443 4.024-1.743h.19a28.362 28.362 0 0 0-.127 3.012 25.206 25.206 0 0 0 .127 2.978h-.19c-.476-1.331-1.11-1.616-4.024-1.711l-2.98-.096v3.771c0 5.229.255 5.514 2.22 6.117zM169.587 32.55a103.57 103.57 0 0 0-4.532-.095c-1.648 0-2.883.031-4.31.095v-.158c1.775-.603 2.06-1.046 2.06-6.877v-8.27c0-5.831-.285-6.275-2.06-6.846v-.158c1.427.064 2.504.095 4.152.095 1.14 0 2.851-.127 4.784-.127 6.021 0 9.095 2.409 9.095 6.307 0 3.105-2.123 4.753-4.532 5.672 2.092 4.943 5.23 8.81 8.176 10.14l-.064.19c-5.165-.665-9.918-2.535-12.706-9.126a15.674 15.674 0 0 1-1.648.094h-.666v2.79c0 5.07.286 5.513 2.25 6.116zm-2.251-11.313h1.332c3.073 0 5.324-1.204 5.324-4.214 0-2.79-1.84-4.183-5.166-4.183a13.006 13.006 0 0 0-1.49.094zM200.227 32.581c-2.916-.095-6.972-.126-9.507-.126-1.68 0-3.738.031-5.165.095v-.158c1.775-.603 2.06-1.046 2.06-6.877v-8.27c0-5.831-.285-6.275-2.06-6.846v-.158c1.427.064 3.232.095 4.88.095 4.69 0 7.384-.064 10.267-.222a47.08 47.08 0 0 0 .159 5.672l-.159.033c-.918-2.346-2.06-2.885-6.432-2.885a17.026 17.026 0 0 0-2.092.096v6.654l3.423-.094c2.946-.096 3.517-.412 4.023-1.712h.19a27.66 27.66 0 0 0-.126 2.98 26.44 26.44 0 0 0 .127 3.01h-.19c-.507-1.364-1.141-1.649-4.024-1.744l-3.423-.063v5.926c0 1.299.476 1.838 2.567 1.838 3.58 0 4.912-.761 6.464-3.201l.158.096a53.926 53.926 0 0 0-1.14 5.861zM206.72 32.392c1.776-.603 2.061-1.046 2.061-6.877v-8.27c0-5.831-.285-6.275-2.06-6.846v-.158c1.426.064 2.661.095 3.803.095 1.52 0 2.978-.127 4.405-.127 4.753 0 8.555 1.205 11.217 3.867a10.374 10.374 0 0 1 2.916 7.542c0 6.432-4.564 11.059-13.247 11.059-1.806 0-3.644-.222-5.291-.222-1.205 0-2.377.031-3.803.095zm15.243-16.827a9.757 9.757 0 0 0-7.003-2.63 8.397 8.397 0 0 0-1.616.095v14.988c0 1.427.539 1.934 3.074 1.934 4.531 0 7.731-2.758 7.731-8.05a8.71 8.71 0 0 0-2.186-6.337zM253.003 32.55a103.165 103.165 0 0 0-4.5-.095c-1.647 0-2.915.031-4.341.095v-.158c1.775-.603 2.06-1.046 2.06-6.877v-8.27c0-5.831-.285-6.275-2.06-6.846v-.158c1.426.064 2.694.095 4.34.095 1.079 0 2.726-.127 4.406-.127 5.64 0 9.443 2.282 9.443 6.592a5.722 5.722 0 0 1-1.68 4.278c-1.774 1.806-4.817 2.661-8.365 2.661h-1.521v2.853c0 4.753.254 5.196 2.218 5.799zm-2.218-11.28h1.11c2.122 0 3.738-.413 4.625-1.332a4 4 0 0 0 1.014-2.884c0-2.978-2.028-4.214-5.039-4.214-.664 0-1.298.063-1.71.094zM265.607 32.866a2.599 2.599 0 1 1 2.661-2.598 2.596 2.596 0 0 1-2.661 2.598zM291.07 32.993a15.24 15.24 0 0 1-6.94-1.616 42.623 42.623 0 0 0-.032-6.115l.16-.033c1.425 3.074 4.181 5.039 6.94 5.039a3.24 3.24 0 0 0 3.548-3.169c0-1.648-.982-2.661-4.34-4.15-4.216-1.934-5.96-3.74-5.96-6.75 0-3.581 2.98-6.401 7.606-6.401a13.778 13.778 0 0 1 6.085 1.457 38.082 38.082 0 0 0 0 5.704l-.159.031c-1.52-2.85-3.77-4.467-6.116-4.467a2.757 2.757 0 0 0-2.915 2.757c0 1.552.823 2.344 4.088 3.802 4.31 1.997 6.21 3.834 6.21 7.003 0 4.088-3.295 6.908-8.175 6.908zM311.285 27.987c0 1.299.506 1.838 2.471 1.838 3.644 0 4.786-.761 6.338-3.36l.158.095a48.627 48.627 0 0 0-1.172 6.021 287.686 287.686 0 0 0-8.778-.126c-1.648 0-4.214.031-5.64.095v-.158c1.775-.603 2.06-1.046 2.06-6.877v-8.27c0-5.831-.285-6.275-2.06-6.846v-.158a91.93 91.93 0 0 0 4.34.095c1.65 0 2.948-.031 4.501-.095v.158c-1.964.57-2.218.856-2.218 6.085zM324.752 21.395c0-6.781 5.354-11.63 12.072-11.63 7.194 0 11.947 5.23 11.947 11.63 0 6.781-5.324 11.63-12.073 11.63-7.162 0-11.946-5.228-11.946-11.63zm4.942-.285c0 5.165 2.789 9.03 7.194 9.03 4.183 0 6.971-3.643 6.971-8.46 0-5.164-2.788-9.03-7.193-9.03-4.214-.001-6.972 3.612-6.972 8.46zM375.736 32.55a78.436 78.436 0 0 0-4.151-.095c-1.616 0-2.883 0-3.835.095v-.158c.92-.318 1.173-.73 1.173-1.363a5.65 5.65 0 0 0-.475-1.965c-.317-.76-.634-1.585-1.014-2.471h-8.936c-.254.665-.54 1.298-.792 1.932a7.53 7.53 0 0 0-.666 2.409 1.356 1.356 0 0 0 1.204 1.458v.158c-1.204-.095-2.63-.095-3.675-.095-1.015 0-2.41.031-3.36.095v-.158c1.078-.445 1.553-.92 2.82-3.771 5.578-12.328 6.846-15.179 8.303-18.697h2.757c.919 2.536 3.232 7.986 8.144 19.298.95 2.187 1.331 2.758 2.503 3.17zm-9.316-8.493c-.983-2.377-2.092-5.133-3.423-8.334-1.204 2.916-2.344 5.704-3.453 8.334zM400.419 32.708h-2.504a35.14 35.14 0 0 0-2.852-4.056l-9.792-12.2.032 9.411c0 5.514.317 5.957 2.187 6.529v.158a91.898 91.898 0 0 0-3.93-.095c-1.33 0-2.282.031-3.77.095v-.158c1.742-.572 2.028-1.142 2.028-7.29l.03-7.573c0-6.02-.252-6.527-2.059-7.13v-.158c1.395.064 2.281.127 3.676.127a18.504 18.504 0 0 0 2.725-.159c.317.508.951 1.363 1.616 2.218 1.3 1.68 6.655 8.367 9.348 11.726l-.03-7.288c0-5.514-.318-5.895-2.188-6.466v-.158c1.616.064 2.757.095 4.056.095 1.236 0 2.218-.031 3.644-.095v.158c-1.742.57-1.965 1.079-2.06 7.448zM101.21 70.573a103.166 103.166 0 0 0-4.501-.095 91.93 91.93 0 0 0-4.342.095v-.159c1.776-.602 2.06-1.045 2.06-6.877v-8.27c0-5.83-.284-6.275-2.06-6.845v-.158c1.427.063 3.232.095 4.88.095 4.469 0 7.162-.064 9.95-.222a47.528 47.528 0 0 0 .127 5.672l-.158.032c-.919-2.345-2.028-2.884-5.957-2.884a15.047 15.047 0 0 0-2.218.096v7.13l2.979-.096c2.947-.126 3.548-.443 4.024-1.743h.19a28.353 28.353 0 0 0-.127 3.01 25.216 25.216 0 0 0 .127 2.98h-.19c-.476-1.332-1.11-1.617-4.024-1.711l-2.98-.096v3.77c0 5.23.255 5.515 2.22 6.117zM112.652 59.418c0-6.782 5.355-11.63 12.072-11.63 7.194 0 11.947 5.23 11.947 11.63 0 6.781-5.323 11.63-12.072 11.63-7.163 0-11.947-5.229-11.947-11.63zm4.942-.285c0 5.165 2.79 9.03 7.194 9.03 4.183 0 6.972-3.643 6.972-8.46 0-5.164-2.789-9.031-7.194-9.031-4.214 0-6.972 3.613-6.972 8.46zM161.637 61.858c0 5.546-2.883 9.19-9.38 9.19-6.115 0-9.157-3.422-9.157-8.905v-6.876c0-5.83-.285-6.275-2.028-6.845v-.158c1.426.063 2.661.095 4.31.095s2.979-.032 4.5-.095v.158c-1.965.57-2.218.824-2.218 5.8v7.572c0 4.056 1.774 5.8 5.102 5.8 3.42 0 5.354-1.87 5.354-6.021l-.03-6.845c0-5.355-.318-5.736-2.188-6.306v-.158c1.617.063 2.852.095 4.183.095 1.3 0 2.124-.032 3.613-.095v.158c-1.712.57-2.028 1.11-2.028 7.448zM189.175 70.73h-2.503a35.14 35.14 0 0 0-2.852-4.055l-9.792-12.2.032 9.41c0 5.515.317 5.958 2.187 6.53v.158a91.898 91.898 0 0 0-3.93-.095c-1.33 0-2.282.031-3.77.095v-.159c1.742-.571 2.027-1.141 2.027-7.289l.032-7.573c0-6.02-.253-6.527-2.06-7.13v-.158c1.395.063 2.281.127 3.676.127a18.502 18.502 0 0 0 2.725-.16c.317.509.951 1.364 1.616 2.22 1.3 1.679 6.655 8.365 9.348 11.724l-.03-7.288c0-5.514-.318-5.895-2.188-6.465v-.158c1.616.063 2.757.095 4.056.095 1.236 0 2.218-.032 3.644-.095v.158c-1.742.57-1.965 1.078-2.06 7.448zM197.294 70.414c1.776-.602 2.06-1.045 2.06-6.877v-8.27c0-5.83-.284-6.275-2.06-6.845v-.158c1.427.063 2.662.095 3.804.095 1.52 0 2.978-.127 4.404-.127 4.754 0 8.556 1.205 11.218 3.866a10.374 10.374 0 0 1 2.915 7.542c0 6.433-4.564 11.06-13.246 11.06-1.807 0-3.644-.222-5.291-.222-1.205 0-2.377.031-3.804.095zm15.242-16.827a9.757 9.757 0 0 0-7.003-2.63 8.397 8.397 0 0 0-1.616.096V66.04c0 1.425.54 1.933 3.074 1.933 4.532 0 7.732-2.757 7.732-8.048a8.71 8.71 0 0 0-2.187-6.339zM246.21 70.573a78.436 78.436 0 0 0-4.15-.095c-1.616 0-2.883 0-3.834.095v-.159c.918-.317 1.172-.73 1.172-1.363a5.65 5.65 0 0 0-.475-1.964c-.316-.761-.634-1.585-1.014-2.472h-8.936c-.254.665-.539 1.299-.792 1.933a7.53 7.53 0 0 0-.666 2.409 1.356 1.356 0 0 0 1.204 1.457v.159c-1.204-.095-2.63-.095-3.675-.095a57.65 57.65 0 0 0-3.359.095v-.159c1.077-.444 1.553-.918 2.82-3.77 5.577-12.328 6.845-15.18 8.303-18.697h2.756c.919 2.536 3.232 7.986 8.145 19.298.95 2.187 1.33 2.757 2.502 3.17zm-9.315-8.494c-.982-2.376-2.092-5.133-3.423-8.333-1.204 2.915-2.344 5.704-3.453 8.333zM262.952 70.573a121.542 121.542 0 0 0-4.69-.095c-1.647 0-2.883.031-4.69.095v-.159c2.22-.633 2.41-.824 2.41-6.432v-13.12h-.952c-4.056.064-5.45 1.49-6.527 4.5l-.158-.032a60.132 60.132 0 0 0 .063-7.13c2.884.095 6.052.159 9.854.159 3.804 0 7.005-.064 9.888-.159a59.875 59.875 0 0 0 .063 7.13l-.159.032c-1.077-3.01-2.471-4.436-6.527-4.5h-.983v13.12c0 5.608.222 5.799 2.408 6.432zM277.962 70.478c-1.647 0-2.978.031-4.372.095v-.159c1.837-.602 2.122-1.045 2.122-6.877v-8.27c0-5.83-.285-6.275-2.122-6.845v-.158c1.394.063 2.725.095 4.372.095 1.616 0 2.916-.032 4.437-.095v.158c-1.839.57-2.124 1.015-2.124 6.845v8.27c0 5.832.285 6.275 2.124 6.877v.159a100.181 100.181 0 0 0-4.437-.095zM287.488 59.418c0-6.782 5.355-11.63 12.073-11.63 7.193 0 11.947 5.23 11.947 11.63 0 6.781-5.324 11.63-12.073 11.63-7.162 0-11.947-5.229-11.947-11.63zm4.943-.285c0 5.165 2.789 9.03 7.193 9.03 4.183 0 6.972-3.643 6.972-8.46 0-5.164-2.789-9.031-7.193-9.031-4.215 0-6.972 3.613-6.972 8.46zM337.3 70.73h-2.504a35.14 35.14 0 0 0-2.852-4.055l-9.792-12.2.033 9.41c0 5.515.316 5.958 2.186 6.53v.158a91.898 91.898 0 0 0-3.93-.095c-1.33 0-2.281.031-3.77.095v-.159c1.743-.571 2.028-1.141 2.028-7.289l.03-7.573c0-6.02-.252-6.527-2.058-7.13v-.158c1.394.063 2.28.127 3.675.127a18.502 18.502 0 0 0 2.725-.16c.317.509.951 1.364 1.616 2.22 1.3 1.679 6.656 8.365 9.348 11.724l-.03-7.288c0-5.514-.318-5.895-2.188-6.465v-.158c1.616.063 2.757.095 4.056.095 1.236 0 2.219-.032 3.644-.095v.158c-1.742.57-1.965 1.078-2.06 7.448zM94.029 91.224h4.357c3.816 0 6.302 2.673 6.302 6.62 0 3.87-2.468 6.657-6.338 6.657h-4.321zm4.283 11.78c2.861 0 4.487-2.318 4.487-5.16 0-2.954-1.59-5.125-4.45-5.125h-2.543v10.285zM111.623 94.926a2.063 2.063 0 0 1 .336.018v1.554h-.073a2.728 2.728 0 0 0-2.058.729 4.343 4.343 0 0 0-.935 3.272v4.002h-1.59v-9.35h1.478v2.132a3.092 3.092 0 0 1 2.842-2.357zM113.998 91.41h1.813v2.001h-1.813zm.112 3.74h1.59v9.35h-1.59zM117.662 95.15h1.72l2.095 6.303a13.73 13.73 0 0 1 .393 1.421h.056a13.73 13.73 0 0 1 .393-1.421l2.094-6.302h1.721l-3.385 9.35h-1.701zM135.39 100.293h-6.64a2.762 2.762 0 0 0 2.786 3.03 2.512 2.512 0 0 0 2.488-1.777l1.309.58a3.888 3.888 0 0 1-3.909 2.6c-2.675 0-4.263-1.703-4.263-4.788 0-3.122 1.57-5.012 4.245-5.012 2.523 0 3.983 1.44 3.983 4.245zm-1.609-1.495c0-1.721-.879-2.618-2.413-2.618-1.645 0-2.58 1.065-2.619 2.823h5.032zM138.097 95.15h1.497v1.852a3.157 3.157 0 0 1 3.122-2.076c2.058 0 3.123 1.272 3.123 3.759v5.816h-1.59v-5.723c0-1.645-.69-2.487-2.057-2.487-1.551 0-2.505 1.254-2.505 3.33v4.88h-1.59zM155.562 102.893l-.28 1.608h-1.217V90.943h1.59v5.834a3.17 3.17 0 0 1 2.973-1.85c2.282 0 3.76 2.038 3.76 4.898 0 2.918-1.515 4.9-3.853 4.9a3.136 3.136 0 0 1-2.973-1.832zm5.141-3.068c0-2.094-.915-3.496-2.58-3.496-1.571 0-2.505 1.252-2.505 3.291v.486c0 1.944.916 3.216 2.487 3.216 1.626 0 2.598-1.365 2.598-3.497zM164.087 108.166v-1.403a4.183 4.183 0 0 0 .673.038c1.122 0 1.703-.506 2.132-1.721l.243-.69-3.722-9.24h1.778l2.394 6.508a8.616 8.616 0 0 1 .318 1.103h.036c.057-.261.168-.636.318-1.103l2.169-6.507h1.721l-3.647 9.95c-.86 2.354-1.982 3.14-3.552 3.14a4.544 4.544 0 0 1-.86-.075zM177.662 95.15h1.737V92.7l1.59-.672v3.123h2.339v1.308h-2.339v5.18c0 1.067.411 1.533 1.365 1.533a3.708 3.708 0 0 0 .974-.13v1.459a4.859 4.859 0 0 1-1.385.168c-2.02 0-2.544-1.234-2.544-2.973v-5.237h-1.737zM185.85 90.943h1.59v5.966a3.098 3.098 0 0 1 3.067-1.983c2.02 0 3.084 1.29 3.084 3.759v5.816h-1.59v-5.703c0-1.646-.69-2.507-2.037-2.507-1.608 0-2.525 1.215-2.525 3.33v4.88h-1.59zM204.156 100.293h-6.64a2.762 2.762 0 0 0 2.787 3.03 2.512 2.512 0 0 0 2.488-1.777l1.309.58a3.888 3.888 0 0 1-3.909 2.6c-2.675 0-4.263-1.703-4.263-4.788 0-3.122 1.57-5.012 4.245-5.012 2.523 0 3.983 1.44 3.983 4.245zm-1.608-1.495c0-1.721-.88-2.618-2.413-2.618-1.645 0-2.58 1.065-2.619 2.823h5.032zM211.82 95.15h1.496v1.74a3.2 3.2 0 0 1 3.048-1.964c2.262 0 3.777 1.944 3.777 4.899 0 2.993-1.608 4.9-3.87 4.9a3.038 3.038 0 0 1-2.862-1.702v5.125h-1.59zm6.638 4.675c0-2.206-.934-3.496-2.505-3.496s-2.58 1.234-2.58 3.253v.45c0 2.018.972 3.29 2.523 3.29 1.59 0 2.562-1.308 2.562-3.497zM227.077 94.926a2.063 2.063 0 0 1 .336.018v1.554h-.073a2.728 2.728 0 0 0-2.058.729 4.343 4.343 0 0 0-.935 3.272v4.002h-1.59v-9.35h1.479v2.132a3.092 3.092 0 0 1 2.84-2.357zM228.628 99.825c0-3.048 1.72-4.899 4.356-4.899s4.358 1.851 4.358 4.899c0 3.05-1.721 4.9-4.358 4.9s-4.356-1.85-4.356-4.9zm7.031 0c0-2.319-.992-3.516-2.675-3.516s-2.673 1.197-2.673 3.516.99 3.515 2.673 3.515 2.675-1.196 2.675-3.515zM241.455 95.15v1.627a2.733 2.733 0 0 1 2.673-1.85 2.642 2.642 0 0 1 2.657 1.868 3.003 3.003 0 0 1 2.841-1.869c1.797 0 2.844 1.272 2.844 3.44v6.135h-1.59v-6.003c0-1.46-.6-2.207-1.776-2.207-1.329 0-2.096.972-2.096 2.675v5.535h-1.588v-6.078c0-1.364-.636-2.132-1.76-2.132-1.308 0-2.112 1.047-2.112 2.75v5.46h-1.59v-9.35zM255.534 91.41h1.812v2.001h-1.812zm.111 3.74h1.59v9.35h-1.59zM259.853 101.846l1.608-.282a2.252 2.252 0 0 0 2.469 1.851c1.251 0 1.944-.615 1.944-1.42 0-.823-.504-1.16-1.347-1.31l-1.832-.336c-1.59-.3-2.487-1.196-2.487-2.618 0-1.608 1.346-2.805 3.554-2.805 2.094 0 3.515.954 3.702 2.525l-1.572.355a2.03 2.03 0 0 0-2.205-1.59c-1.197 0-1.928.525-1.928 1.44 0 .786.525 1.16 1.442 1.328l1.812.337c1.683.318 2.432 1.178 2.432 2.543 0 1.683-1.29 2.862-3.572 2.862-2.207 0-3.702-1.03-4.02-2.88zM277.56 100.293h-6.64a2.762 2.762 0 0 0 2.787 3.03 2.512 2.512 0 0 0 2.489-1.777l1.308.58a3.888 3.888 0 0 1-3.908 2.6c-2.675 0-4.263-1.703-4.263-4.788 0-3.122 1.57-5.012 4.244-5.012 2.524 0 3.984 1.44 3.984 4.245zm-1.607-1.495c0-1.721-.879-2.618-2.414-2.618-1.644 0-2.58 1.065-2.618 2.823h5.032zM284.384 99.825c0-3.048 1.719-4.899 4.356-4.899s4.358 1.851 4.358 4.899c0 3.05-1.722 4.9-4.358 4.9s-4.356-1.85-4.356-4.9zm7.03 0c0-2.319-.991-3.516-2.674-3.516s-2.674 1.197-2.674 3.516.99 3.515 2.674 3.515 2.675-1.196 2.675-3.515zM300.05 96.46h-2.337v8.04h-1.59v-8.04h-1.719v-1.31h1.72v-1.477a2.622 2.622 0 0 1 2.73-2.842 4.702 4.702 0 0 1 1.196.13v1.365a6.45 6.45 0 0 0-.99-.093c-.954 0-1.347.524-1.347 1.664v1.254h2.337zM313.12 95.88a3.048 3.048 0 0 1 .859 2.207 3.158 3.158 0 0 1-3.459 3.198 4.091 4.091 0 0 1-1.794-.393 1.002 1.002 0 0 0-.675.915c0 .525.393.954 1.554.954h2.28c2.114 0 3.18.954 3.18 2.637 0 1.758-1.384 2.975-4.638 2.975-3.291 0-4.208-1.236-4.208-2.564a2.006 2.006 0 0 1 1.515-1.944 1.684 1.684 0 0 1-1.084-1.626 1.927 1.927 0 0 1 1.327-1.871 3.086 3.086 0 0 1-.916-2.28 3.13 3.13 0 0 1 3.459-3.162 4.267 4.267 0 0 1 1.833.393 2.189 2.189 0 0 1 2.225-1.701 2.305 2.305 0 0 1 .618.075v1.383a3.294 3.294 0 0 0-.674-.075 1.331 1.331 0 0 0-1.402.879zm-3.572 8.285a9.39 9.39 0 0 1-.786-.039 1.53 1.53 0 0 0-.99 1.403c0 1.159 1.158 1.533 2.841 1.533 2.282 0 2.862-.71 2.862-1.55 0-.88-.655-1.347-1.945-1.347zm2.936-6.06a1.964 1.964 0 1 0-1.964 1.963 1.866 1.866 0 0 0 1.964-1.962zM321.664 94.926a2.062 2.062 0 0 1 .336.018v1.554h-.073a2.728 2.728 0 0 0-2.057.729 4.343 4.343 0 0 0-.936 3.272v4.002h-1.59v-9.35h1.479v2.132a3.092 3.092 0 0 1 2.841-2.357zM331.443 100.293h-6.64a2.762 2.762 0 0 0 2.787 3.03 2.512 2.512 0 0 0 2.488-1.777l1.309.58a3.888 3.888 0 0 1-3.909 2.6c-2.675 0-4.263-1.703-4.263-4.788 0-3.122 1.57-5.012 4.245-5.012 2.523 0 3.983 1.44 3.983 4.245zm-1.608-1.495c0-1.721-.88-2.618-2.413-2.618-1.645 0-2.58 1.065-2.619 2.823h5.032zM333.313 101.976a2.458 2.458 0 0 1 1.308-2.206 9.446 9.446 0 0 1 3.14-.767l1.74-.205v-.15c0-1.721-.617-2.414-2.057-2.414a1.9 1.9 0 0 0-2.13 1.853h-1.704c.132-1.907 1.628-3.16 3.816-3.16 2.561 0 3.683 1.16 3.683 3.89v2.523a11.175 11.175 0 0 0 .318 3.16h-1.664a14.685 14.685 0 0 1-.148-1.7 3.127 3.127 0 0 1-3.143 1.926c-1.908 0-3.16-1.086-3.16-2.75zm6.207-1.552v-.468l-2.544.375c-1.383.205-1.98.69-1.98 1.608 0 .915.69 1.476 1.832 1.476a2.679 2.679 0 0 0 2.692-2.99zM342.922 95.15h1.738V92.7l1.59-.672v3.123h2.338v1.308h-2.339v5.18c0 1.067.411 1.533 1.365 1.533a3.708 3.708 0 0 0 .974-.13v1.459a4.859 4.859 0 0 1-1.385.168c-2.019 0-2.543-1.234-2.543-2.973v-5.237h-1.738zM355.86 91.41h1.813v2.001h-1.813zm.112 3.74h1.59v9.35h-1.59zM360.18 99.825c0-2.88 1.644-4.899 3.981-4.899a2.895 2.895 0 0 1 2.75 1.608v-5.591h1.59V104.5h-1.496v-1.74a3.11 3.11 0 0 1-3.03 1.965c-2.262 0-3.795-1.965-3.795-4.901zm6.768.225v-.43c0-2.039-.972-3.29-2.542-3.29-1.59 0-2.543 1.29-2.543 3.495 0 2.189.954 3.497 2.543 3.497 1.552 0 2.542-1.272 2.542-3.272zM379.439 100.293h-6.64a2.762 2.762 0 0 0 2.786 3.03 2.512 2.512 0 0 0 2.489-1.777l1.308.58a3.888 3.888 0 0 1-3.908 2.6c-2.675 0-4.263-1.703-4.263-4.788 0-3.122 1.57-5.012 4.244-5.012 2.524 0 3.984 1.44 3.984 4.245zm-1.608-1.495c0-1.721-.88-2.618-2.414-2.618-1.644 0-2.58 1.065-2.618 2.823h5.032zM381.306 101.976a2.458 2.458 0 0 1 1.308-2.206 9.446 9.446 0 0 1 3.141-.767l1.74-.205v-.15c0-1.721-.618-2.414-2.058-2.414a1.9 1.9 0 0 0-2.13 1.853h-1.703c.131-1.907 1.628-3.16 3.815-3.16 2.562 0 3.684 1.16 3.684 3.89v2.523a11.175 11.175 0 0 0 .318 3.16h-1.665a14.687 14.687 0 0 1-.148-1.7 3.127 3.127 0 0 1-3.143 1.926c-1.907 0-3.159-1.086-3.159-2.75zm6.207-1.552v-.468l-2.543.375c-1.384.205-1.981.69-1.981 1.608 0 .915.69 1.476 1.833 1.476a2.679 2.679 0 0 0 2.691-2.99zM391.478 101.846l1.608-.282a2.252 2.252 0 0 0 2.469 1.851c1.251 0 1.944-.615 1.944-1.42 0-.823-.504-1.16-1.347-1.31l-1.833-.336c-1.59-.3-2.486-1.196-2.486-2.618 0-1.608 1.346-2.805 3.554-2.805 2.094 0 3.515.954 3.702 2.525l-1.572.355a2.03 2.03 0 0 0-2.205-1.59c-1.197 0-1.928.525-1.928 1.44 0 .786.524 1.16 1.442 1.328l1.812.337c1.683.318 2.432 1.178 2.432 2.543 0 1.683-1.29 2.862-3.572 2.862-2.207 0-3.702-1.03-4.02-2.88z"></path></svg>
